# xmcd
#
# Track frame offsets:
#	150
#	20227
#	36795
#	57505
#	78000
#	93977
#	113075
#	128062
#	145372
#	164672
#	181520
#	200572
#
# Disc length: 2880 seconds
#
# Revision: 1
# Processed by: cddbd v1.5.1PL0 Copyright (c) Steve Scherf et al.
# Submitted via: audiograbber 1.83.01
#
DISCID=a00b3e0c
DTITLE=Rosemarie Ford - I Wanna Dance With Somebody
DYEAR=1991
DGENRE=Country
TTITLE0=I wanna dance with somebody
TTITLE1=Miss you like crazy
TTITLE2=(I've had) The time of my life
TTITLE3=How am I supposed to live without you
TTITLE4=If love is forever
TTITLE5=Get here
TTITLE6=1-2-3
TTITLE7=If I were your woman
TTITLE8=Crazy for you
TTITLE9=Too little too late
TTITLE10=Another day in paradise
TTITLE11=Hold out for love
EXTD=
EXTT0=
EXTT1=
EXTT2=
EXTT3=
EXTT4=
EXTT5=
EXTT6=
EXTT7=
EXTT8=
EXTT9=
EXTT10=
EXTT11=
PLAYORDER=
